# xmcd
#
# Track frame offsets:
#	150
#	15782
#	30702
#	47472
#	67585
#	84175
#	102920
#	122065
#	143035
#	165810
#	181537
#
# Disc length: 2627 seconds
#
# Revision: 1
# Processed by: cddbd v1.4PL0 Copyright (c) Steve Scherf et al.
# Submitted via: CDmax 1.9
#
DISCID=680a410b
DTITLE=Jenny Paquette - Time Will Tell...
DYEAR=1999
DGENRE=Country
TTITLE0=Now I Know
TTITLE1=Strangers
TTITLE2=It's Been
TTITLE3=I Find I Miss You
TTITLE4=Name On Your Lips
TTITLE5=Time Will Tell
TTITLE6=By The Hand
TTITLE7=Same Old Story
TTITLE8=Shattered Dreams
TTITLE9=Still Running
TTITLE10=Someday
EXTD=
EXTT0=
EXTT1=
EXTT2=
EXTT3=
EXTT4=
EXTT5=
EXTT6=
EXTT7=
EXTT8=
EXTT9=
EXTT10=
PLAYORDER=
